<svg xmlns="http://www.w3.org/2000/svg" width="97" height="99" viewBox="0 0 97 99">
  <g id="Groupe_214" data-name="Groupe 214" transform="translate(-0.125 0.441)">
    <g id="Groupe_209" data-name="Groupe 209" transform="translate(22.501 21.064)">
      <g id="Groupe_14" data-name="Groupe 14" transform="translate(0 0)">
        <path id="Ligne_4" data-name="Ligne 4" d="M0,54.726a2,2,0,0,1-2-2V0A2,2,0,0,1,0-2,2,2,0,0,1,2,0V52.726A2,2,0,0,1,0,54.726Z" transform="translate(25.75)" fill="#fff"/>
        <path id="Ligne_5" data-name="Ligne 5" d="M52.726,2H0A2,2,0,0,1-2,0,2,2,0,0,1,0-2H52.726a2,2,0,0,1,2,2A2,2,0,0,1,52.726,2Z" transform="translate(0 26.924)" fill="#fff"/>
      </g>
    </g>
    <path id="Ellipse_13" data-name="Ellipse 13" d="M48.5,3A44.374,44.374,0,0,0,30.811,6.644,45.311,45.311,0,0,0,16.348,16.6,46.417,46.417,0,0,0,6.583,31.381a47.608,47.608,0,0,0,0,36.238A46.417,46.417,0,0,0,16.348,82.4a45.311,45.311,0,0,0,14.462,9.954,44.754,44.754,0,0,0,35.379,0A45.31,45.31,0,0,0,80.652,82.4a46.417,46.417,0,0,0,9.765-14.783,47.608,47.608,0,0,0,0-36.238A46.417,46.417,0,0,0,80.652,16.6,45.31,45.31,0,0,0,66.189,6.644,44.374,44.374,0,0,0,48.5,3m0-3C75.286,0,97,22.162,97,49.5S75.286,99,48.5,99,0,76.838,0,49.5,21.714,0,48.5,0Z" transform="translate(0.125 -0.441)" fill="#feffff"/>
  </g>
</svg>
