<svg xmlns="http://www.w3.org/2000/svg" width="52" height="51.695" viewBox="0 0 52 51.695">
  <g id="Groupe_220" data-name="Groupe 220" transform="translate(-934 -306.653)">
    <path id="Tracé_257" data-name="Tracé 257" d="M0,46.695H-.12A5,5,0,0,1-5,41.575L-4-.12A5,5,0,0,1,1.12-5,5,5,0,0,1,6,.12L5,41.815A5,5,0,0,1,0,46.695Z" transform="translate(960 311.653)" fill="#fff"/>
    <path id="Ligne_8" data-name="Ligne 8" d="M41,5.5H0A5.5,5.5,0,0,1-5.5,0,5.5,5.5,0,0,1,0-5.5H41A5.5,5.5,0,0,1,46.5,0,5.5,5.5,0,0,1,41,5.5Z" transform="translate(939.5 332.5)" fill="#fff"/>
  </g>
</svg>
