<svg xmlns="http://www.w3.org/2000/svg" width="99" height="99" viewBox="0 0 99 99">
  <g id="Groupe_213" data-name="Groupe 213" transform="translate(0.415 0.441)">
    <g id="Groupe_208" data-name="Groupe 208" transform="translate(73.874 67.054) rotate(180)">
      <path id="Tracé_129" data-name="Tracé 129" d="M13.338,18.786,1.064,6.307a3.707,3.707,0,1,1,5.286-5.2L21.18,16.185a3.707,3.707,0,0,1,0,5.2L6.855,35.964a3.707,3.707,0,0,1-5.289-5.2ZM27.757,6.307a3.707,3.707,0,1,1,5.286-5.2L47.872,16.185a3.707,3.707,0,0,1,0,5.2L33.547,35.964a3.707,3.707,0,0,1-5.289-5.2L40.031,18.786Z" transform="translate(0 0)" fill="#fff"/>
    </g>
    <path id="Ellipse_12" data-name="Ellipse 12" d="M49.5,3A46.513,46.513,0,0,0,31.4,92.347,46.513,46.513,0,0,0,67.6,6.653,46.206,46.206,0,0,0,49.5,3m0-3A49.5,49.5,0,1,1,0,49.5,49.5,49.5,0,0,1,49.5,0Z" transform="translate(-0.415 -0.441)" fill="#feffff"/>
  </g>
</svg>
