<svg xmlns="http://www.w3.org/2000/svg" width="98" height="99" viewBox="0 0 98 99">
  <g id="Groupe_215" data-name="Groupe 215" transform="translate(0.286 0.441)">
    <g id="Groupe_212" data-name="Groupe 212" transform="translate(26.416 22.701)">
      <path id="Tracé_255" data-name="Tracé 255" d="M271.56,170.2a6.851,6.851,0,0,1-13.331,0H231.174a1.58,1.58,0,1,1,0-3.161h27.055a6.851,6.851,0,0,1,13.331,0h1.764a1.58,1.58,0,1,1,0,3.161Zm-6.666-5.269a3.688,3.688,0,1,0,3.688,3.688A3.692,3.692,0,0,0,264.894,164.93Zm-18.624-13.7a6.851,6.851,0,0,1-13.331,0h-1.764a1.581,1.581,0,0,1,0-3.161h1.764a6.851,6.851,0,0,1,13.331,0h27.055a1.581,1.581,0,0,1,0,3.161Zm-6.665-5.269a3.688,3.688,0,1,0,3.688,3.688A3.692,3.692,0,0,0,239.6,145.964Zm16.149,43.2a6.851,6.851,0,0,1-13.331,0H231.174a1.581,1.581,0,0,1,0-3.161h11.248a6.851,6.851,0,0,1,13.331,0h17.57a1.581,1.581,0,0,1,0,3.161Zm-6.666-5.269a3.688,3.688,0,1,0,3.688,3.689A3.692,3.692,0,0,0,249.088,183.9Z" transform="translate(-229.594 -142.802)" fill="#fff"/>
    </g>
    <path id="Ellipse_14" data-name="Ellipse 14" d="M49,3A45.285,45.285,0,0,0,31.106,6.649a45.826,45.826,0,0,0-14.622,9.96,46.787,46.787,0,0,0,0,65.783,45.826,45.826,0,0,0,14.622,9.96,45.7,45.7,0,0,0,35.789,0,45.826,45.826,0,0,0,14.622-9.96,46.787,46.787,0,0,0,0-65.783,45.826,45.826,0,0,0-14.622-9.96A45.285,45.285,0,0,0,49,3m0-3C76.062,0,98,22.162,98,49.5S76.062,99,49,99,0,76.838,0,49.5,21.938,0,49,0Z" transform="translate(-0.286 -0.441)" fill="#feffff"/>
  </g>
</svg>
