<svg xmlns="http://www.w3.org/2000/svg" width="240.802" height="274.401" viewBox="0 0 240.802 274.401">
  <path id="Tracé_253" data-name="Tracé 253" d="M452.62,288.4a36.408,36.408,0,0,1-70.848,0H237.992a8.4,8.4,0,1,1,0-16.8h143.78a36.408,36.408,0,0,1,70.848,0h9.375a8.4,8.4,0,0,1,0,16.8Zm-35.426-28A19.6,19.6,0,1,0,436.8,280,19.62,19.62,0,0,0,417.194,260.4Zm-98.977-72.8a36.408,36.408,0,0,1-70.848,0h-9.375a8.4,8.4,0,0,1,0-16.8h9.375a36.408,36.408,0,0,1,70.848,0H462a8.4,8.4,0,0,1,0,16.8Zm-35.422-28a19.6,19.6,0,1,0,19.6,19.6A19.62,19.62,0,0,0,282.8,159.6Zm85.824,229.6a36.408,36.408,0,0,1-70.848,0H237.994a8.4,8.4,0,0,1,0-16.8h59.777a36.408,36.408,0,0,1,70.848,0h93.375a8.4,8.4,0,0,1,0,16.8Zm-35.426-28a19.6,19.6,0,1,0,19.6,19.6A19.62,19.62,0,0,0,333.193,361.2Z" transform="translate(-229.594 -142.802)"/>
</svg>
