<svg xmlns="http://www.w3.org/2000/svg" width="99" height="99" viewBox="0 0 99 99">
  <g id="Groupe_216" data-name="Groupe 216" transform="translate(0.473 0.441)">
    <g id="Groupe_207" data-name="Groupe 207" transform="translate(21.902 20.287)">
      <g id="Groupe_32" data-name="Groupe 32" transform="translate(0 0)">
        <path id="noun-organization-5470085" d="M106.85,101.685a8.187,8.187,0,0,0,1.9-16.171V82.1a.632.632,0,0,1,.632-.632h32.849a.632.632,0,0,1,.632.632v3.411a8.212,8.212,0,1,0,3.79,0V82.1a4.447,4.447,0,0,0-4.422-4.422H127.7V71.161a9.475,9.475,0,1,0-3.79,0V77.68H109.377a4.447,4.447,0,0,0-4.422,4.422v3.411a8.187,8.187,0,0,0,1.9,16.171Zm42.323-8.212a4.447,4.447,0,1,1-1.3-3.12A4.421,4.421,0,0,1,149.174,93.473ZM120.116,61.888a5.685,5.685,0,1,1,1.665,4.02A5.686,5.686,0,0,1,120.116,61.888ZM106.85,89.05a4.447,4.447,0,1,1-3.119,1.3A4.424,4.424,0,0,1,106.85,89.05Z" transform="translate(-98.574 -52.402)" fill="#fff"/>
      </g>
    </g>
    <path id="Ellipse_15" data-name="Ellipse 15" d="M49.5,3A46.513,46.513,0,0,0,31.4,92.347,46.513,46.513,0,0,0,67.6,6.653,46.206,46.206,0,0,0,49.5,3m0-3A49.5,49.5,0,1,1,0,49.5,49.5,49.5,0,0,1,49.5,0Z" transform="translate(-0.473 -0.441)" fill="#feffff"/>
  </g>
</svg>
