<svg xmlns="http://www.w3.org/2000/svg" width="291.249" height="264.064" viewBox="0 0 291.249 264.064">
  <path id="noun-organization-5470085" d="M142.891,316.3a43.838,43.838,0,0,0,10.148-86.594V211.441a3.384,3.384,0,0,1,3.382-3.384h175.9a3.383,3.383,0,0,1,3.382,3.384v18.266a43.973,43.973,0,1,0,20.3,0V211.441a23.812,23.812,0,0,0-23.677-23.68h-77.8V152.854a50.738,50.738,0,1,0-20.3,0v34.908h-77.8a23.812,23.812,0,0,0-23.677,23.68v18.266A43.838,43.838,0,0,0,142.891,316.3Zm226.632-43.973a23.812,23.812,0,1,1-6.974-16.706A23.677,23.677,0,0,1,369.523,272.328ZM213.926,103.2a30.44,30.44,0,1,1,8.916,21.528A30.45,30.45,0,0,1,213.926,103.2ZM142.891,248.646a23.812,23.812,0,1,1-16.7,6.974A23.688,23.688,0,0,1,142.891,248.646Z" transform="translate(-98.574 -52.402)"/>
</svg>
