<svg xmlns="http://www.w3.org/2000/svg" width="98" height="99" viewBox="0 0 98 99">
  <g id="Groupe_217" data-name="Groupe 217" transform="translate(-0.277 0.441)">
    <g id="Groupe_210" data-name="Groupe 210" transform="translate(15.4 40.231)">
      <path id="Ellipse_5" data-name="Ellipse 5" d="M8.287,2a6.287,6.287,0,1,0,6.287,6.287A6.294,6.294,0,0,0,8.287,2m0-2A8.287,8.287,0,1,1,0,8.287,8.287,8.287,0,0,1,8.287,0Z" transform="translate(0 0)" fill="#fff"/>
      <path id="Ellipse_8" data-name="Ellipse 8" d="M9,2A6.772,6.772,0,0,0,2,8.5,6.772,6.772,0,0,0,9,15a6.772,6.772,0,0,0,7-6.5A6.772,6.772,0,0,0,9,2M9,0a8.761,8.761,0,0,1,9,8.5A8.761,8.761,0,0,1,9,17,8.761,8.761,0,0,1,0,8.5,8.761,8.761,0,0,1,9,0Z" transform="translate(23.876 0.328)" fill="#fff"/>
      <path id="Ellipse_9" data-name="Ellipse 9" d="M8.287,2a6.287,6.287,0,1,0,6.287,6.287A6.294,6.294,0,0,0,8.287,2m0-2A8.287,8.287,0,1,1,0,8.287,8.287,8.287,0,0,1,8.287,0Z" transform="translate(49.721 0)" fill="#fff"/>
    </g>
    <path id="Ellipse_16" data-name="Ellipse 16" d="M49,3A45.285,45.285,0,0,0,31.106,6.649a45.826,45.826,0,0,0-14.622,9.96,46.787,46.787,0,0,0,0,65.783,45.826,45.826,0,0,0,14.622,9.96,45.7,45.7,0,0,0,35.789,0,45.826,45.826,0,0,0,14.622-9.96,46.787,46.787,0,0,0,0-65.783,45.826,45.826,0,0,0-14.622-9.96A45.285,45.285,0,0,0,49,3m0-3C76.062,0,98,22.162,98,49.5S76.062,99,49,99,0,76.838,0,49.5,21.938,0,49,0Z" transform="translate(0.277 -0.441)" fill="#feffff"/>
  </g>
</svg>
